<?xml version="1.0" encoding="UTF-8" standalone="no"?>
<svg
   xmlns:dc="http://purl.org/dc/elements/1.1/"
   xmlns:cc="http://creativecommons.org/ns#"
   xmlns:rdf="http://www.w3.org/1999/02/22-rdf-syntax-ns#"
   xmlns:svg="http://www.w3.org/2000/svg"
   xmlns="http://www.w3.org/2000/svg"
   xmlns:sodipodi="http://sodipodi.sourceforge.net/DTD/sodipodi-0.dtd"
   xmlns:inkscape="http://www.inkscape.org/namespaces/inkscape"
   inkscape:version="1.0 (4035a4fb49, 2020-05-01)"
   sodipodi:docname="leave.svg"
   id="svg869"
   preserveAspectRatio="xMidYMid meet"
   viewBox="0 0 2400.000000 2400.000000"
   height="25.000000pt"
   width="25.000000pt"
   version="1.0">
  <defs
     id="defs873" />
  <sodipodi:namedview
     inkscape:current-layer="svg869"
     inkscape:window-maximized="1"
     inkscape:window-y="-9"
     inkscape:window-x="-9"
     inkscape:cy="1600"
     inkscape:cx="1600"
     inkscape:zoom="0.270625"
     showgrid="false"
     id="namedview871"
     inkscape:window-height="1001"
     inkscape:window-width="1920"
     inkscape:pageshadow="2"
     inkscape:pageopacity="0"
     guidetolerance="10"
     gridtolerance="10"
     objecttolerance="10"
     borderopacity="1"
     bordercolor="#666666"
     pagecolor="#ffffff" />
  <metadata
     id="metadata861">
Created by potrace 1.14, written by Peter Selinger 2001-2017
<rdf:RDF>
  <cc:Work
     rdf:about="">
    <dc:format>image/svg+xml</dc:format>
    <dc:type
       rdf:resource="http://purl.org/dc/dcmitype/StillImage" />
  </cc:Work>
</rdf:RDF>
</metadata>
  <g
     style="fill:#ffffff;fill-opacity:1"
     id="g867"
     stroke="none"
     fill="#000000"
     transform="translate(0.000000,2400.000000) scale(0.100000,-0.100000)">
    <path
       style="fill:#ffffff;fill-opacity:1"
       id="path863"
       d="M10144 23395 c-255 -46 -406 -180 -471 -416 -17 -61 -18 -256 -18 -3865 l0 -3800 37 -76 c50 -100 137 -186 237 -236 l75 -37 136 0 136 0 75 37 c100 50 187 136 237 236 l37 76 3 3553 2 3553 4458 -1 c3694 0 4451 -3 4422 -14 -19 -7 -429 -152 -912 -323 -482 -171 -899 -322 -928 -337 -101 -51 -181 -145 -231 -270 l-24 -60 -3 -8448 -2 -8447 -3388 2 -3387 3 -5 3515 c-5 3342 -6 3517 -23 3560 -40 101 -117 195 -206 251 -145 93 -377 93 -522 1 -98 -63 -177 -165 -210 -272 -19 -64 -19 -107 -17 -3810 3 -3550 4 -3748 21 -3805 50 -171 144 -286 289 -355 161 -76 -175 -70 3831 -70 l3595 0 7 -27 c4 -16 11 -590 14 -1278 8 -1396 2 -1292 79 -1411 86 -132 208 -209 359 -228 102 -12 187 0 264 39 30 14 1192 693 2582 1507 1571 920 2546 1497 2576 1524 85 77 180 247 206 371 22 104 22 18773 0 18878 -25 118 -76 208 -174 306 -91 91 -159 132 -276 166 -57 17 -366 18 -6435 20 -5189 1 -6388 -1 -6446 -12z" />
    <path
       style="fill:#ffffff;fill-opacity:1"
       id="path865"
       d="M3450 15486 c-1339 -1157 -2436 -2108 -2438 -2114 -1 -5 1095 -836 2437 -1846 2109 -1587 2444 -1836 2473 -1836 53 1 112 33 139 76 l24 39 3 1572 2 1573 3168 2 3168 3 80 39 c152 76 250 210 275 378 36 242 -121 482 -356 544 -41 11 -601 14 -3192 14 l-3143 0 0 1763 0 1763 -22 44 c-27 53 -68 79 -135 85 l-48 5 -2435 -2104z" />
  </g>
</svg>
